<svg xmlns="http://www.w3.org/2000/svg" width="512" height="512" viewBox="0 0 512 512">
  <defs>
    <linearGradient id="waveGradient512" x1="0%" y1="0%" x2="0%" y2="100%">
      <stop offset="0%" style="stop-color:#60a5fa;stop-opacity:1" />
      <stop offset="50%" style="stop-color:#2563eb;stop-opacity:1" />
      <stop offset="100%" style="stop-color:#1e40af;stop-opacity:1" />
    </linearGradient>
    <linearGradient id="bgGradient512" x1="0%" y1="0%" x2="0%" y2="100%">
      <stop offset="0%" style="stop-color:#dbeafe;stop-opacity:1" />
      <stop offset="100%" style="stop-color:#bfdbfe;stop-opacity:1" />
    </linearGradient>
  </defs>
  
  <!-- Background with rounded corners for app icon -->
  <rect x="0" y="0" width="512" height="512" rx="112" ry="112" fill="url(#bgGradient512)"/>
  
  <!-- Wave paths -->
  <g opacity="0.9">
    <!-- First wave (back) -->
    <path d="M 0 350 Q 128 280 256 320 T 512 350 L 512 512 L 0 512 Z" 
          fill="url(#waveGradient512)" 
          opacity="0.4"/>
    
    <!-- Second wave (middle) -->
    <path d="M 0 320 Q 128 250 256 290 T 512 320 L 512 512 L 0 512 Z" 
          fill="url(#waveGradient512)" 
          opacity="0.6"/>
    
    <!-- Third wave (front) -->
    <path d="M 0 290 Q 128 220 256 260 T 512 290 L 512 512 L 0 512 Z" 
          fill="url(#waveGradient512)" 
          opacity="0.8"/>
  </g>
  
  <!-- Breathing circle indicator -->
  <circle cx="256" cy="180" r="60" fill="none" stroke="#1e40af" stroke-width="8" opacity="0.3"/>
  <circle cx="256" cy="180" r="40" fill="none" stroke="#2563eb" stroke-width="6" opacity="0.5"/>
  <circle cx="256" cy="180" r="20" fill="#60a5fa" opacity="0.7"/>
</svg>