<svg xmlns="http://www.w3.org/2000/svg" width="192" height="192" viewBox="0 0 192 192">
  <defs>
    <linearGradient id="waveGradient192" x1="0%" y1="0%" x2="0%" y2="100%">
      <stop offset="0%" style="stop-color:#60a5fa;stop-opacity:1" />
      <stop offset="50%" style="stop-color:#2563eb;stop-opacity:1" />
      <stop offset="100%" style="stop-color:#1e40af;stop-opacity:1" />
    </linearGradient>
    <linearGradient id="bgGradient192" x1="0%" y1="0%" x2="0%" y2="100%">
      <stop offset="0%" style="stop-color:#dbeafe;stop-opacity:1" />
      <stop offset="100%" style="stop-color:#bfdbfe;stop-opacity:1" />
    </linearGradient>
  </defs>
  
  <!-- Background with rounded corners for app icon -->
  <rect x="0" y="0" width="192" height="192" rx="42" ry="42" fill="url(#bgGradient192)"/>
  
  <!-- Wave paths scaled to 192x192 -->
  <g opacity="0.9">
    <!-- First wave (back) -->
    <path d="M 0 131 Q 48 105 96 120 T 192 131 L 192 192 L 0 192 Z" 
          fill="url(#waveGradient192)" 
          opacity="0.4"/>
    
    <!-- Second wave (middle) -->
    <path d="M 0 120 Q 48 94 96 109 T 192 120 L 192 192 L 0 192 Z" 
          fill="url(#waveGradient192)" 
          opacity="0.6"/>
    
    <!-- Third wave (front) -->
    <path d="M 0 109 Q 48 83 96 98 T 192 109 L 192 192 L 0 192 Z" 
          fill="url(#waveGradient192)" 
          opacity="0.8"/>
  </g>
  
  <!-- Breathing circle indicator -->
  <circle cx="96" cy="68" r="23" fill="none" stroke="#1e40af" stroke-width="3" opacity="0.3"/>
  <circle cx="96" cy="68" r="15" fill="none" stroke="#2563eb" stroke-width="2.5" opacity="0.5"/>
  <circle cx="96" cy="68" r="8" fill="#60a5fa" opacity="0.7"/>
</svg>